# Blender v2.74 (sub 0) OBJ File: 'common.blend'
# www.blender.org
o Cube_Cube.001
v -0.333333 -1.000000 0.333333
v -0.666667 -0.333333 0.666667
v -0.333333 -1.000000 -0.333333
v -0.666667 -0.333333 -0.666667
v 0.333333 -1.000000 0.333333
v 0.666667 -0.333333 0.666667
v 0.333333 -1.000000 -0.333333
v 0.666667 -0.333333 -0.666667
v -0.500000 0.333333 0.500000
v -0.500000 0.333333 -0.500000
v 0.500000 0.333333 -0.500000
v 0.500000 0.333333 0.500000
v -0.125000 1.000000 0.125000
v -0.125000 1.000000 -0.125000
v 0.125000 1.000000 -0.125000
v 0.125000 1.000000 0.125000
vt 0.000078 0.339218
vt 0.151746 0.000078
vt 0.455082 0.000078
vt 0.750050 0.750050
vt 1.000000 0.750050
vt 1.000000 1.000000
vt 0.606750 0.339219
vt 0.530915 0.651891
vt 0.075911 0.651889
vt 0.360287 0.999922
vt 0.246536 0.999922
vt 0.749913 1.000000
vt 0.624938 1.000000
vt 0.624938 0.875025
vt 0.750050 1.000000
vt 0.749913 0.875025
vn -0.894400 -0.447200 0.000000
vn 0.000000 -0.447200 -0.894400
vn 0.894400 -0.447200 0.000000
vn 0.000000 -0.447200 0.894400
vn 0.000000 -1.000000 0.000000
vn 0.000000 0.242500 0.970100
vn 0.000000 0.490300 0.871600
vn 0.970100 0.242500 0.000000
vn 0.000000 0.242500 -0.970100
vn -0.970100 0.242500 0.000000
vn 0.000000 1.000000 0.000000
vn 0.871600 0.490300 0.000000
vn 0.000000 0.490300 -0.871600
vn -0.871600 0.490300 0.000000
s off
f 4/1/1 3/2/1 1/3/1
f 8/1/2 7/2/2 3/3/2
f 6/1/3 5/2/3 7/3/3
f 2/1/4 1/2/4 5/3/4
f 3/4/5 7/5/5 5/6/5
f 6/7/6 12/8/6 9/9/6
f 12/8/7 16/10/7 13/11/7
f 8/7/8 11/8/8 12/9/8
f 4/7/9 10/8/9 11/9/9
f 2/7/10 9/8/10 10/9/10
f 15/12/11 14/13/11 13/14/11
f 11/8/12 15/10/12 16/11/12
f 10/8/13 14/10/13 15/11/13
f 9/8/14 13/10/14 14/11/14
f 2/7/1 4/1/1 1/3/1
f 4/7/2 8/1/2 3/3/2
f 8/7/3 6/1/3 7/3/3
f 6/7/4 2/1/4 5/3/4
f 1/15/5 3/4/5 5/6/5
f 2/1/6 6/7/6 9/9/6
f 9/9/7 12/8/7 13/11/7
f 6/1/8 8/7/8 12/9/8
f 8/1/9 4/7/9 11/9/9
f 4/1/10 2/7/10 10/9/10
f 16/16/11 15/12/11 13/14/11
f 12/9/12 11/8/12 16/11/12
f 11/9/13 10/8/13 15/11/13
f 10/9/14 9/8/14 14/11/14
