# Blender v2.74 (sub 0) OBJ File: 'Grand.blend'
# www.blender.org
mtllib Grand.mtl
o Cube_Cube.001
v -1.000000 -1.000000 1.000000
v -1.000000 -0.750000 1.000000
v -1.000000 -1.000000 -1.000000
v -1.000000 -0.750000 -1.000000
v 1.000000 -1.000000 1.000000
v 1.000000 -0.750000 1.000000
v 1.000000 -1.000000 -1.000000
v 1.000000 -0.750000 -1.000000
v -0.800000 -0.750000 0.800000
v -0.800000 -0.750000 -0.800000
v 0.800000 -0.750000 -0.800000
v 0.800000 -0.750000 0.800000
v -0.600000 -0.650000 0.600000
v -0.600000 -0.650000 -0.600000
v 0.600000 -0.650000 -0.600000
v 0.600000 -0.650000 0.600000
vt 0.656250 0.312500
vt 0.656250 0.000000
vt 0.687500 0.000000
vt 0.687500 0.312500
vt 1.000000 0.000000
vt 1.000000 0.312500
vt 0.968750 0.031250
vt 0.718750 0.031250
vt 0.066667 0.450000
vt 0.066667 0.050000
vt 0.133333 0.100000
vt 0.133333 0.400000
vt 0.968750 0.281250
vt 0.718750 0.281250
vt 0.533333 0.100000
vt 0.533333 0.400000
vt 0.600000 0.050000
vt 0.600000 0.450000
vn -1.000000 0.000000 0.000000
vn 0.000000 0.000000 -1.000000
vn 1.000000 0.000000 0.000000
vn 0.000000 0.000000 1.000000
vn 0.000000 -1.000000 0.000000
vn 0.000000 1.000000 0.000000
vn 0.000000 0.894400 0.447200
vn 0.447200 0.894400 0.000000
vn 0.000000 0.894400 -0.447200
vn -0.447200 0.894400 0.000000
usemtl None
s off
f 2/1/1 4/2/1 3/3/1 1/4/1
f 4/1/2 8/2/2 7/3/2 3/4/2
f 8/3/3 6/4/3 5/1/3 7/2/3
f 6/3/4 2/4/4 1/1/4 5/2/4
f 1/4/5 3/3/5 7/5/5 5/6/5
f 2/3/6 6/5/6 12/7/6 9/8/6
f 9/9/7 12/10/7 16/11/7 13/12/7
f 6/5/6 8/6/6 11/13/6 12/7/6
f 8/6/6 4/4/6 10/14/6 11/13/6
f 4/4/6 2/3/6 9/8/6 10/14/6
f 16/11/6 15/15/6 14/16/6 13/12/6
f 12/10/8 11/17/8 15/15/8 16/11/8
f 11/17/9 10/18/9 14/16/9 15/15/9
f 10/18/10 9/9/10 13/12/10 14/16/10
