# Blender v2.74 (sub 0) OBJ File: 'Greater.blend'
# www.blender.org
o Cube_Cube.001
v -0.320000 -1.000000 0.320000
v -0.320000 -0.500000 0.320000
v -0.320000 -1.000000 -0.320000
v -0.320000 -0.500000 -0.320000
v 0.320000 -1.000000 0.320000
v 0.320000 -0.500000 0.320000
v 0.320000 -1.000000 -0.320000
v 0.320000 -0.500000 -0.320000
v 0.200000 0.400000 -0.300000
v 0.200000 0.400000 -0.700000
v 0.600000 0.400000 -0.700000
v 0.600000 0.400000 -0.300000
v -0.450000 0.700000 0.600000
v -0.450000 0.700000 0.400000
v -0.550000 0.600000 0.700000
v -0.550000 0.600000 0.300000
v -0.150000 0.600000 0.700000
v -0.150000 0.600000 0.300000
v -0.480000 0.500000 0.480000
v -0.480000 0.500000 -0.480000
v 0.480000 0.500000 0.480000
v 0.480000 0.500000 -0.480000
v -0.240000 1.000000 0.240000
v -0.240000 1.000000 -0.240000
v 0.240000 1.000000 0.240000
v 0.240000 1.000000 -0.240000
v -0.250000 0.700000 0.400000
v -0.250000 0.700000 0.600000
v 0.300000 0.600000 -0.400000
v 0.300000 0.600000 -0.600000
v 0.500000 0.600000 -0.600000
v 0.500000 0.600000 -0.400000
vt 0.077452 0.241892
vt 0.077452 0.000068
vt 0.386987 0.000068
vt 0.000000 0.700060
vt 0.299940 0.700060
vt 0.299940 1.000000
vt 0.212734 0.999916
vt 0.000084 0.169906
vt 0.303870 0.169906
vt 0.076030 0.000084
vt 0.227924 0.000084
vt 0.369067 0.227890
vt 0.252633 0.906612
vt 0.022004 0.764219
vt 0.000067 0.127826
vt 0.445826 0.000067
vt 0.278666 0.784304
vt 0.000000 0.146274
vt 0.400107 0.000000
vt 0.250067 0.791516
vt 0.386987 0.241893
vt 0.464370 0.731693
vt 0.000068 0.731692
vt 0.238657 0.954163
vt 0.113623 0.999874
vt 0.435442 0.822194
vt 0.234278 0.964439
vt 0.000000 0.227723
vt 0.225062 0.972816
vt 0.087848 0.999934
vt 0.000066 0.916468
vt 0.253653 0.960009
vt 0.114354 0.999933
vt 0.425242 0.236260
vt 0.208834 0.963029
vt 0.000065 0.815408
vt 0.348282 0.999932
vt 0.116133 0.999924
vt 0.274494 0.862232
vt 0.000066 0.086843
vt 0.000000 1.000000
vt 0.115375 0.999939
vt 0.000061 0.928743
vt 0.099980 0.900020
vt 0.099980 1.000000
vt 0.104449 0.999935
vt 0.000065 0.926124
vt 0.146348 0.999939
vt 0.028070 0.955913
vt 0.000062 0.850266
vt 0.435442 0.928878
vt 0.334860 1.000000
vt 0.378550 0.140942
vt 0.236617 0.938316
vt 0.000000 0.900020
vt 0.698794 0.999916
vt 0.000061 0.000061
vt 0.000067 0.864154
vt 0.000000 0.882937
vt 0.321863 0.000132
vt 0.091212 0.000065
vt 0.439151 0.000066
vn -1.000000 0.000000 0.000000
vn 0.000000 0.000000 -1.000000
vn 1.000000 0.000000 0.000000
vn 0.000000 0.000000 1.000000
vn 0.000000 -1.000000 0.000000
vn 0.000000 0.567300 0.823500
vn 0.000000 0.447200 0.894400
vn 0.954900 -0.297100 0.000000
vn 0.000000 -0.389000 -0.921200
vn -0.865900 0.500300 0.000000
vn 0.987400 -0.158000 0.000000
vn -0.894400 0.447200 0.000000
vn 0.919600 0.392900 0.000000
vn 0.000000 0.707100 0.707100
vn 0.000000 0.447200 -0.894400
vn -0.987400 -0.158000 0.000000
vn -0.978800 -0.204700 0.000000
vn 0.000000 0.432700 0.901500
vn 0.000000 -0.158000 0.987400
vn 0.000000 -0.326500 0.945200
vn 0.000000 1.000000 0.000000
vn 0.901500 0.432700 0.000000
vn 0.000000 0.432700 -0.901500
vn -0.901500 0.432700 0.000000
vn 0.894400 0.447200 0.000000
vn -0.707100 0.707100 0.000000
vn 0.000000 0.707100 -0.707100
vn 0.000000 -0.158000 -0.987400
vn 0.707100 0.707100 0.000000
vn 0.000000 0.491000 -0.871200
s off
f 4/1/1 3/2/1 1/3/1
f 8/1/2 7/2/2 3/3/2
f 6/1/3 5/2/3 7/3/3
f 2/1/4 1/2/4 5/3/4
f 3/4/5 7/5/5 5/6/5
f 6/7/6 12/8/6 9/9/6
f 12/8/7 32/10/7 29/11/7
f 8/12/8 11/13/8 12/14/8
f 8/15/9 4/16/9 10/17/9
f 4/18/10 2/19/10 9/20/10
f 8/21/11 22/22/11 21/23/11
f 9/20/12 29/24/12 30/25/12
f 18/26/13 17/27/13 6/28/13
f 28/29/14 13/30/14 15/31/14
f 10/17/15 30/32/15 31/33/15
f 2/21/16 19/22/16 20/23/16
f 2/34/17 15/35/17 16/36/17
f 21/22/18 25/37/18 23/38/18
f 6/21/19 21/22/19 19/23/19
f 17/39/20 15/31/20 2/40/20
f 25/5/21 26/6/21 24/41/21
f 22/22/22 26/37/22 25/38/22
f 20/22/23 24/37/23 26/38/23
f 19/22/24 23/37/24 24/38/24
f 11/13/25 31/42/25 32/43/25
f 31/44/21 30/45/21 29/41/21
f 15/35/26 13/46/26 14/47/26
f 14/48/27 27/49/27 18/50/27
f 4/21/28 20/22/28 22/23/28
f 27/51/29 28/52/29 17/27/29
f 4/53/30 16/54/30 18/50/30
f 28/55/21 27/44/21 14/45/21
f 2/21/1 4/1/1 1/3/1
f 4/21/2 8/1/2 3/3/2
f 8/21/3 6/1/3 7/3/3
f 6/21/4 2/1/4 5/3/4
f 1/41/5 3/4/5 5/6/5
f 2/56/6 6/7/6 9/9/6
f 9/9/7 12/8/7 29/11/7
f 6/57/8 8/12/8 12/14/8
f 11/58/9 8/15/9 10/17/9
f 10/59/10 4/18/10 9/20/10
f 6/1/11 8/21/11 21/23/11
f 10/59/12 9/20/12 30/25/12
f 8/60/13 18/26/13 6/28/13
f 17/39/14 28/29/14 15/31/14
f 11/58/15 10/17/15 31/33/15
f 4/1/16 2/21/16 20/23/16
f 4/61/17 2/34/17 16/36/17
f 19/23/18 21/22/18 23/38/18
f 2/1/19 6/21/19 19/23/19
f 6/62/20 17/39/20 2/40/20
f 23/4/21 25/5/21 24/41/21
f 21/23/22 22/22/22 25/38/22
f 22/23/23 20/22/23 26/38/23
f 20/23/24 19/22/24 24/38/24
f 12/14/25 11/13/25 32/43/25
f 32/55/21 31/44/21 29/41/21
f 16/36/26 15/35/26 14/47/26
f 16/54/27 14/48/27 18/50/27
f 8/1/28 4/21/28 22/23/28
f 18/26/29 27/51/29 17/27/29
f 8/57/30 4/53/30 18/50/30
f 13/41/21 28/55/21 14/45/21
