# Blender v2.74 (sub 0) OBJ File: 'Lesser.blend'
# www.blender.org
o Cube_Cube.001
v -0.300000 -0.800000 0.300000
v -0.300000 0.800000 0.300000
v -0.300000 -0.800000 -0.300000
v -0.300000 0.800000 -0.300000
v 0.300000 -0.800000 0.300000
v 0.300000 0.800000 0.300000
v 0.300000 -0.800000 -0.300000
v 0.300000 0.800000 -0.300000
v -0.200000 1.000000 0.200000
v -0.200000 1.000000 -0.200000
v 0.200000 1.000000 -0.200000
v 0.200000 1.000000 0.200000
v -0.200000 -1.000000 -0.200000
v -0.200000 -1.000000 0.200000
v 0.200000 -1.000000 -0.200000
v 0.200000 -1.000000 0.200000
v -0.100000 0.900000 0.100000
v -0.100000 0.900000 -0.100000
v 0.100000 0.900000 -0.100000
v 0.100000 0.900000 0.100000
v -0.100000 -0.900000 -0.100000
v -0.100000 -0.900000 0.100000
v 0.100000 -0.900000 -0.100000
v 0.100000 -0.900000 0.100000
vt 0.000051 0.843250
vt 0.000288 0.156661
vt 0.257759 0.156750
vt 0.000051 0.843304
vt 0.000051 0.156695
vt 0.257530 0.156696
vt 0.042964 0.060739
vt 0.214617 0.060739
vt 0.257529 0.843305
vt 0.214616 0.939261
vt 0.042964 0.939261
vt 0.171703 0.999949
vt 0.085877 0.999949
vt 0.042929 0.939218
vt 0.085877 0.000051
vt 0.171704 0.000051
vt 0.043233 0.060722
vt 0.214880 0.060782
vt 0.398438 0.914062
vt 0.398438 1.000000
vt 0.312500 1.000000
vt 0.171644 0.999949
vt 0.085820 0.999920
vt 0.226562 1.000000
vt 0.226562 0.914062
vt 0.312500 0.914062
vt 0.086165 0.000051
vt 0.171989 0.000080
vn -1.000000 0.000000 0.000000
vn 0.000000 0.000000 -1.000000
vn 1.000000 0.000000 0.000000
vn 0.000000 0.000000 1.000000
vn 0.000000 -0.447200 0.894400
vn 0.000000 0.447200 0.894400
vn 0.000000 0.707100 -0.707100
vn 0.894400 0.447200 0.000000
vn 0.000000 0.447200 -0.894400
vn -0.894400 0.447200 0.000000
vn 0.000000 -0.707100 -0.707100
vn 0.894400 -0.447200 0.000000
vn 0.000000 -0.447200 -0.894400
vn -0.894400 -0.447200 0.000000
vn 0.000000 1.000000 0.000000
vn -0.707100 0.707100 0.000000
vn 0.000000 0.707100 0.707100
vn 0.707100 0.707100 0.000000
vn 0.000000 -1.000000 0.000000
vn -0.707100 -0.707100 0.000000
vn 0.000000 -0.707100 0.707100
vn 0.707100 -0.707100 0.000000
s off
f 4/1/1 3/2/1 1/3/1
f 8/1/2 7/2/2 3/3/2
f 6/4/3 5/5/3 7/6/3
f 2/4/4 1/5/4 5/6/4
f 1/5/5 14/7/5 16/8/5
f 6/9/6 12/10/6 9/11/6
f 12/10/7 20/12/7 17/13/7
f 8/9/8 11/10/8 12/11/8
f 4/9/9 10/10/9 11/14/9
f 2/9/10 9/10/10 10/14/10
f 14/7/11 22/15/11 24/16/11
f 5/5/12 16/7/12 15/8/12
f 7/2/13 15/17/13 13/18/13
f 3/2/14 13/17/14 14/18/14
f 19/19/15 18/20/15 17/21/15
f 11/10/16 19/12/16 20/13/16
f 10/10/17 18/22/17 19/23/17
f 9/10/18 17/22/18 18/23/18
f 21/24/19 23/25/19 24/26/19
f 16/7/20 24/15/20 23/16/20
f 15/17/21 23/27/21 21/28/21
f 13/17/22 21/27/22 22/28/22
f 2/9/1 4/1/1 1/3/1
f 4/9/2 8/1/2 3/3/2
f 8/9/3 6/4/3 7/6/3
f 6/9/4 2/4/4 5/6/4
f 5/6/5 1/5/5 16/8/5
f 2/4/6 6/9/6 9/11/6
f 9/11/7 12/10/7 17/13/7
f 6/4/8 8/9/8 12/11/8
f 8/1/9 4/9/9 11/14/9
f 4/1/10 2/9/10 10/14/10
f 16/8/11 14/7/11 24/16/11
f 7/6/12 5/5/12 15/8/12
f 3/3/13 7/2/13 13/18/13
f 1/3/14 3/2/14 14/18/14
f 20/26/15 19/19/15 17/21/15
f 12/11/16 11/10/16 20/13/16
f 11/14/17 10/10/17 19/23/17
f 10/14/18 9/10/18 18/23/18
f 22/21/19 21/24/19 24/26/19
f 15/8/20 16/7/20 23/16/20
f 13/18/21 15/17/21 21/28/21
f 14/18/22 13/17/22 22/28/22
