# Blender v2.74 (sub 0) OBJ File: 'Petty.blend'
# www.blender.org
o Cube_Cube.001
v -0.200000 -0.800000 0.200000
v -0.200000 0.800000 0.200000
v -0.200000 -0.800000 -0.200000
v -0.200000 0.800000 -0.200000
v 0.200000 -0.800000 0.200000
v 0.200000 0.800000 0.200000
v 0.200000 -0.800000 -0.200000
v 0.200000 0.800000 -0.200000
v -0.100000 1.000000 0.100000
v -0.100000 1.000000 -0.100000
v 0.100000 1.000000 -0.100000
v 0.100000 1.000000 0.100000
v -0.100000 -1.000000 -0.100000
v -0.100000 -1.000000 0.100000
v 0.100000 -1.000000 -0.100000
v 0.100000 -1.000000 0.100000
vt 0.000044 0.890741
vt 0.000044 0.109260
vt 0.195415 0.109259
vt 0.048887 0.000044
vt 0.146572 0.000044
vt 0.195414 0.890741
vt 0.146572 0.999956
vt 0.048887 0.999956
vt 0.296875 1.000000
vt 0.203125 1.000000
vt 0.203125 0.906250
vt 0.203125 0.812500
vt 0.296875 0.812500
vt 0.296875 0.906250
vn -1.000000 0.000000 0.000000
vn 0.000000 0.000000 -1.000000
vn 1.000000 0.000000 0.000000
vn 0.000000 0.000000 1.000000
vn 0.000000 -0.447200 0.894400
vn 0.000000 0.447200 0.894400
vn 0.000000 1.000000 0.000000
vn 0.894400 0.447200 0.000000
vn 0.000000 0.447200 -0.894400
vn -0.894400 0.447200 0.000000
vn 0.000000 -1.000000 0.000000
vn 0.894400 -0.447200 0.000000
vn 0.000000 -0.447200 -0.894400
vn -0.894400 -0.447200 0.000000
s off
f 4/1/1 3/2/1 1/3/1
f 8/1/2 7/2/2 3/3/2
f 6/1/3 5/2/3 7/3/3
f 2/1/4 1/2/4 5/3/4
f 1/2/5 14/4/5 16/5/5
f 6/6/6 12/7/6 9/8/6
f 11/9/7 10/10/7 9/11/7
f 6/1/8 8/6/8 11/7/8
f 4/6/9 10/7/9 11/8/9
f 4/1/10 2/6/10 9/7/10
f 13/12/11 15/13/11 16/14/11
f 7/3/12 5/2/12 16/4/12
f 7/2/13 15/4/13 13/5/13
f 1/3/14 3/2/14 13/4/14
f 2/6/1 4/1/1 1/3/1
f 4/6/2 8/1/2 3/3/2
f 8/6/3 6/1/3 7/3/3
f 6/6/4 2/1/4 5/3/4
f 5/3/5 1/2/5 16/5/5
f 2/1/6 6/6/6 9/8/6
f 12/14/7 11/9/7 9/11/7
f 12/8/8 6/1/8 11/7/8
f 8/1/9 4/6/9 11/8/9
f 10/8/10 4/1/10 9/7/10
f 14/11/11 13/12/11 16/14/11
f 15/5/12 7/3/12 16/4/12
f 3/3/13 7/2/13 13/5/13
f 14/5/14 1/3/14 13/4/14
