# Blender v2.74 (sub 0) OBJ File: 'anvil.blend'
# www.blender.org
o Cube_Cube.001
v -1.000000 -1.000000 1.000000
v -0.500000 -0.500000 0.500000
v -1.000000 -1.000000 -1.000000
v -0.500000 -0.500000 -0.500000
v 1.000000 -1.000000 1.000000
v 0.500000 -0.500000 0.500000
v 1.000000 -1.000000 -1.000000
v 0.500000 -0.500000 -0.500000
v -0.500000 0.000000 0.500000
v -0.500000 0.000000 -0.500000
v 0.500000 0.000000 -0.500000
v 0.500000 0.000000 0.500000
v -1.000000 0.500000 1.000000
v -1.000000 0.500000 -1.000000
v 1.000000 0.500000 -1.000000
v 1.000000 0.500000 1.000000
v -1.000000 1.000000 1.000000
v -1.000000 1.000000 -1.000000
v 1.000000 1.000000 -1.000000
v 1.000000 1.000000 1.000000
v -0.500000 1.000000 0.500000
v -0.500000 1.000000 -0.500000
v 0.500000 1.000000 -0.500000
v 0.500000 1.000000 0.500000
v -0.450000 1.000000 0.450000
v -0.450000 1.000000 -0.450000
v 0.450000 1.000000 -0.450000
v 0.450000 1.000000 0.450000
v -0.500000 0.950000 0.500000
v -0.500000 0.950000 -0.500000
v 0.500000 0.950000 -0.500000
v 0.500000 0.950000 0.500000
v -0.450000 0.950000 0.450000
v -0.450000 0.950000 -0.450000
v 0.450000 0.950000 -0.450000
v 0.450000 0.950000 0.450000
v -0.500000 -0.500000 0.025000
v -0.500000 -0.500000 -0.025000
v -1.000000 -1.000000 -0.025000
v -1.000000 -1.000000 0.025000
v -0.500000 0.000000 0.025000
v -0.500000 0.000000 -0.025000
v -1.000000 0.500000 0.025000
v -1.000000 0.500000 -0.025000
v -1.000000 1.000000 0.025000
v -1.000000 1.000000 -0.025000
v -0.500000 1.000000 0.025000
v -0.500000 1.000000 -0.025000
v 0.500000 -0.500000 -0.025000
v 0.500000 -0.500000 0.025000
v 1.000000 -1.000000 0.025000
v 1.000000 -1.000000 -0.025000
v 0.500000 0.000000 -0.025000
v 0.500000 0.000000 0.025000
v 1.000000 0.500000 -0.025000
v 1.000000 0.500000 0.025000
v 1.000000 1.000000 -0.025000
v 1.000000 1.000000 0.025000
v 0.500000 1.000000 -0.025000
v 0.500000 1.000000 0.025000
v 0.950000 0.950000 -0.025000
v 1.000000 0.950000 0.025000
v 0.500000 0.950000 -0.025000
v 0.500000 0.950000 0.025000
v 0.950000 0.500000 -0.025000
v 0.950000 0.500000 0.025000
v 0.950000 1.000000 -0.025000
v 0.950000 1.000000 0.025000
v 0.464645 0.035355 -0.025000
v 0.464645 0.035355 0.025000
v 0.450000 -0.500000 -0.025000
v 0.450000 -0.500000 0.025000
v 0.450000 0.000000 -0.025000
v 0.450000 0.000000 0.025000
v 0.464645 -0.535355 -0.025000
v 0.464645 -0.535355 0.025000
v 0.929285 -1.000000 0.025000
v 0.929285 -1.000000 -0.025000
v 1.000000 0.950000 -0.025000
v 0.950000 0.950000 0.025000
v -0.500000 0.950000 0.025000
v -0.500000 0.950000 -0.025000
v -0.950000 0.500000 0.025000
v -0.950000 0.500000 -0.025000
v -0.950000 1.000000 0.025000
v -0.950000 1.000000 -0.025000
v -0.464645 0.035355 0.025000
v -0.464645 0.035355 -0.025000
v -0.450000 -0.500000 0.025000
v -0.450000 -0.500000 -0.025000
v -0.450000 0.000000 0.025000
v -0.450000 0.000000 -0.025000
v -0.464645 -0.535355 0.025000
v -0.464645 -0.535355 -0.025000
v -0.929285 -1.000000 -0.025000
v -0.929285 -1.000000 0.025000
v -1.000000 0.950000 -0.025000
v -1.000000 0.950000 0.025000
v -0.950000 0.950000 -0.025000
v -0.950000 0.950000 0.025000
vt 0.625000 1.000000
vt 0.781250 0.687500
vt 0.468750 0.687500
vt 0.156250 0.375000
vt -0.000000 0.062500
vt 0.625000 0.062500
vt 0.625000 0.375000
vt 0.625000 0.687500
vt 0.312500 0.687500
vt 0.468750 1.000000
vt 0.312500 1.000000
vt 0.312500 0.375000
vt -0.000000 0.375000
vt 0.078125 0.531250
vt 0.078125 0.843750
vt 0.312500 0.656250
vt 0.000000 0.000000
vt 0.164062 0.375000
vt 0.234375 0.531250
vt 0.234375 0.843750
vt 0.148438 1.000000
vt -0.000000 1.000000
vt 0.218750 0.812500
vt 0.093750 0.812500
vt 0.093750 0.562500
vt 0.218750 0.562500
vt 0.671875 0.000000
vt 0.671875 0.031250
vt 0.328125 0.031250
vt 0.328125 -0.000000
vt 0.164062 1.000000
vt 0.164062 0.843750
vt 0.585938 0.000000
vt 0.585938 0.031250
vt 0.570312 0.031250
vt 0.296875 0.000000
vt 0.296875 0.031250
vt 0.171875 0.031250
vt 0.085938 0.031250
vt 0.000000 0.031250
vt 0.148438 0.375000
vt 0.148438 0.531250
vt 0.984375 0.000000
vt 0.984375 0.031250
vt 0.843750 0.031250
vt 0.625000 0.656250
vt 0.429688 0.000000
vt 0.593750 -0.000000
vt 0.593750 0.031250
vt 0.445312 0.031250
vt 0.429688 0.031250
vt 1.000000 0.515625
vt 1.000000 0.796875
vt 0.984375 0.796875
vt 0.289062 0.031250
vt 0.289062 0.000000
vt 0.304688 0.031250
vt 1.000000 0.296875
vt 1.000000 0.500000
vt 0.984375 0.500000
vt 0.453125 0.031250
vt 0.984375 0.281250
vt 1.000000 -0.000000
vt 0.164062 0.000000
vt 0.148438 0.031250
vt 0.562500 -0.000000
vt 0.562500 0.031250
vt 0.578125 -0.000000
vt 0.578125 0.031250
vt 0.843750 -0.000000
vt 1.000000 1.000000
vt 1.000000 0.281250
vt 0.203125 0.031250
vt 0.218750 -0.000000
vt 0.312500 0.000000
vt 0.312500 0.031250
vt 0.406250 -0.000000
vt 1.000000 0.531250
vt 1.000000 0.812500
vt 0.984375 0.812500
vt 0.460938 0.000000
vt 0.460938 0.031250
vt 0.101562 0.000000
vt 0.203125 0.000000
vt 0.171875 0.000000
vt 0.156250 0.031250
vt 0.406250 0.031250
vt 0.421875 0.000000
vt 0.570312 0.000000
vt 0.156250 -0.000000
vt 0.148438 0.843750
vt 0.984375 1.000000
vt 0.085938 0.000000
vt 0.320312 0.390625
vt 0.617188 0.343750
vt 0.617188 0.390625
vt 0.312500 0.062500
vt 0.164062 0.031250
vt 0.132812 0.000000
vt 0.132812 0.031250
vt 0.015625 0.031250
vt 0.015625 0.000000
vt 0.304688 0.000000
vt 0.468750 0.375000
vt 0.164062 0.531250
vt 0.984375 0.515625
vt 0.984375 0.296875
vt 0.453125 -0.000000
vt 0.984375 0.531250
vt 0.421875 0.031250
vt 0.625000 0.390625
vt 0.312500 0.390625
vt 0.320312 0.343750
vt 0.625000 0.343750
vt 0.312500 0.343750
vn -0.707100 0.707100 0.000000
vn 0.000000 0.707100 -0.707100
vn 0.707100 0.707100 0.000000
vn 0.000000 0.707100 0.707100
vn 0.000000 0.000000 1.000000
vn 0.000000 -0.707100 0.707100
vn 1.000000 0.000000 0.000000
vn 0.000000 0.000000 -1.000000
vn -1.000000 0.000000 0.000000
vn 0.707100 -0.707100 0.000000
vn 0.000000 -0.707100 -0.707100
vn -0.707100 -0.707100 0.000000
vn 0.000000 1.000000 0.000000
vn 0.691500 -0.722400 0.000000
vn 0.923900 -0.382700 0.000000
vn 0.923900 0.382700 0.000000
vn -0.691500 -0.722400 0.000000
vn -0.923900 -0.382700 0.000000
vn -0.923900 0.382700 0.000000
vn 0.000000 -1.000000 0.000000
s off
f 4/1/1 3/2/1 39/3/1
f 8/4/2 7/5/2 3/6/2
f 6/1/3 5/2/3 51/3/3
f 2/4/4 1/5/4 5/6/4
f 6/7/5 12/8/5 9/9/5
f 12/4/6 16/5/6 13/6/6
f 8/3/7 11/10/7 53/11/7
f 4/9/8 10/12/8 11/7/8
f 2/3/9 9/10/9 41/11/9
f 16/6/5 20/7/5 17/13/5
f 11/1/10 15/2/10 55/3/10
f 10/4/11 14/5/11 15/6/11
f 9/1/12 13/2/12 43/3/12
f 20/13/13 24/14/13 21/15/13
f 79/16/7 15/7/7 19/8/7
f 14/13/8 18/5/8 19/6/8
f 98/16/9 13/7/9 17/8/9
f 26/17/9 34/17/9 33/17/9
f 57/18/13 19/12/13 23/19/13
f 18/11/13 22/20/13 23/19/13
f 45/21/13 17/22/13 21/15/13
f 27/23/13 26/24/13 25/25/13
f 27/17/8 35/17/8 34/17/8
f 28/17/7 36/17/7 35/17/7
f 25/17/5 33/17/5 36/17/5
f 32/14/13 36/25/13 33/24/13
f 31/19/13 35/26/13 36/25/13
f 30/20/13 34/23/13 35/26/13
f 29/15/13 33/24/13 34/23/13
f 24/27/8 32/28/8 29/29/8
f 22/29/5 30/30/5 31/27/5
f 46/31/13 48/32/13 22/20/13
f 14/7/9 44/12/9 97/16/9
f 45/33/8 85/34/8 100/35/8
f 10/1/12 42/10/12 44/3/12
f 38/3/9 42/10/9 10/11/9
f 41/36/8 91/37/8 89/38/8
f 2/1/1 37/10/1 40/3/1
f 38/39/5 39/40/5 95/17/5
f 58/41/13 60/42/13 24/14/13
f 61/43/5 67/44/5 59/45/5
f 16/12/7 56/7/7 62/46/7
f 12/1/10 54/10/10 56/3/10
f 50/3/7 54/10/7 12/11/7
f 8/1/3 49/10/3 52/3/3
f 50/47/8 51/48/8 77/49/8
f 76/50/8 72/51/8 50/47/8
f 69/52/14 65/53/14 66/54/14
f 73/55/5 53/56/5 69/57/5
f 71/58/7 73/59/7 74/60/7
f 65/61/5 69/57/5 53/56/5
f 76/62/3 77/43/3 78/63/3
f 49/64/5 75/65/5 78/40/5
f 79/66/5 61/67/5 65/61/5
f 57/68/5 67/69/5 61/67/5
f 68/43/8 80/44/8 64/45/8
f 64/45/9 32/28/9 24/27/9
f 63/70/9 59/45/9 23/28/9
f 66/54/7 65/53/7 61/71/7
f 64/42/13 80/41/13 61/18/13
f 74/60/15 73/59/15 69/52/15
f 76/62/16 75/72/16 71/58/16
f 42/73/5 88/74/5 84/75/5
f 44/76/5 84/75/5 99/77/5
f 87/78/17 83/79/17 84/80/17
f 41/36/8 43/81/8 83/82/8
f 89/58/9 91/59/9 92/60/9
f 38/39/5 90/83/5 92/84/5
f 94/62/1 95/43/1 96/63/1
f 37/85/8 93/86/8 96/40/8
f 97/87/5 99/77/5 86/88/5
f 98/89/8 100/35/8 83/82/8
f 86/40/5 99/17/5 82/90/5
f 81/86/8 100/40/8 85/17/8
f 82/21/13 99/91/13 100/32/13
f 100/71/9 99/92/9 84/80/9
f 92/60/18 91/59/18 87/78/18
f 42/73/5 92/84/5 88/74/5
f 41/36/8 87/76/8 91/37/8
f 38/39/5 94/93/5 90/83/5
f 37/85/8 89/38/8 93/86/8
f 94/62/19 93/72/19 89/58/19
f 82/90/7 30/30/7 22/29/7
f 81/86/7 47/90/7 21/30/7
f 3/8/20 7/9/20 78/94/20
f 96/95/20 95/96/20 78/94/20
f 1/6/20 96/95/20 5/97/20
f 71/98/5 75/65/5 49/64/5
f 56/99/8 66/100/8 80/101/8
f 62/102/8 80/101/8 68/40/8
f 53/56/5 73/55/5 71/98/5
f 50/47/8 72/51/8 74/57/8
f 54/103/8 74/57/8 70/55/8
f 66/100/8 56/99/8 54/103/8
f 38/10/1 4/1/1 39/3/1
f 4/104/2 8/4/2 3/6/2
f 50/10/3 6/1/3 51/3/3
f 6/104/4 2/4/4 5/6/4
f 2/12/5 6/7/5 9/9/5
f 9/104/6 12/4/6 13/6/6
f 49/9/7 8/3/7 53/11/7
f 8/8/8 4/9/8 11/7/8
f 37/9/9 2/3/9 41/11/9
f 13/5/5 16/6/5 17/13/5
f 53/10/10 11/1/10 55/3/10
f 11/104/11 10/4/11 15/6/11
f 41/10/12 9/1/12 43/3/12
f 17/22/13 20/13/13 21/15/13
f 15/7/7 79/16/7 55/12/7
f 79/16/7 19/8/7 57/9/7
f 15/7/8 14/13/8 19/6/8
f 13/7/9 98/16/9 43/12/9
f 98/16/9 17/8/9 45/9/9
f 25/17/9 26/17/9 33/17/9
f 59/105/13 57/18/13 23/19/13
f 19/12/13 18/11/13 23/19/13
f 47/91/13 45/21/13 21/15/13
f 28/26/13 27/23/13 25/25/13
f 26/17/8 27/17/8 34/17/8
f 27/17/7 28/17/7 35/17/7
f 28/17/5 25/17/5 36/17/5
f 29/15/13 32/14/13 33/24/13
f 32/14/13 31/19/13 36/25/13
f 31/19/13 30/20/13 35/26/13
f 30/20/13 29/15/13 34/23/13
f 21/30/8 24/27/8 29/29/8
f 23/28/5 22/29/5 31/27/5
f 18/11/13 46/31/13 22/20/13
f 97/16/9 18/8/9 14/7/9
f 18/8/9 97/16/9 46/9/9
f 98/89/8 45/33/8 100/35/8
f 14/2/12 10/1/12 44/3/12
f 4/9/9 38/3/9 10/11/9
f 37/85/8 41/36/8 89/38/8
f 1/2/1 2/1/1 40/3/1
f 94/93/5 38/39/5 95/17/5
f 20/13/13 58/41/13 24/14/13
f 63/70/5 61/43/5 59/45/5
f 62/46/7 20/9/7 16/12/7
f 20/9/7 62/46/7 58/8/7
f 16/2/10 12/1/10 56/3/10
f 6/9/7 50/3/7 12/11/7
f 7/2/3 8/1/3 52/3/3
f 76/50/8 50/47/8 77/49/8
f 70/106/14 69/52/14 66/54/14
f 72/107/7 71/58/7 74/60/7
f 55/108/5 65/61/5 53/56/5
f 75/72/3 76/62/3 78/63/3
f 52/17/5 49/64/5 78/40/5
f 55/108/5 79/66/5 65/61/5
f 79/66/5 57/68/5 61/67/5
f 60/70/8 68/43/8 64/45/8
f 60/70/9 64/45/9 24/27/9
f 31/27/9 63/70/9 23/28/9
f 80/92/7 66/54/7 61/71/7
f 63/105/13 64/42/13 61/18/13
f 70/106/15 74/60/15 69/52/15
f 72/107/16 76/62/16 71/58/16
f 44/76/5 42/73/5 84/75/5
f 97/87/5 44/76/5 99/77/5
f 88/109/17 87/78/17 84/80/17
f 87/76/8 41/36/8 83/82/8
f 90/107/9 89/58/9 92/60/9
f 42/73/5 38/39/5 92/84/5
f 93/72/1 94/62/1 96/63/1
f 40/17/8 37/85/8 96/40/8
f 46/110/5 97/87/5 86/88/5
f 43/81/8 98/89/8 83/82/8
f 48/86/5 86/40/5 82/90/5
f 47/90/8 81/86/8 85/17/8
f 81/31/13 82/21/13 100/32/13
f 83/79/9 100/71/9 84/80/9
f 88/109/18 92/60/18 87/78/18
f 90/107/19 94/62/19 89/58/19
f 48/86/7 82/90/7 22/29/7
f 29/29/7 81/86/7 21/30/7
f 95/96/20 39/111/20 3/8/20
f 3/8/20 78/94/20 95/96/20
f 78/94/20 7/9/20 52/112/20
f 77/113/20 96/95/20 78/94/20
f 96/95/20 1/6/20 40/114/20
f 77/113/20 51/115/20 5/97/20
f 5/97/20 96/95/20 77/113/20
f 62/102/8 56/99/8 80/101/8
f 58/17/8 62/102/8 68/40/8
f 49/64/5 53/56/5 71/98/5
f 54/103/8 50/47/8 74/57/8
f 70/55/8 66/100/8 54/103/8
