# Blender v2.74 (sub 0) OBJ File: 'generator.blend'
# www.blender.org
o Pylon2
v 1.400000 0.500000 -1.400000
v 1.400000 2.500000 -1.400000
v 1.300000 2.500000 -1.500000
v 1.400000 2.500000 -1.400000
v 1.300000 2.500000 -1.400000
v 1.500000 2.500000 -1.500000
v 1.600000 0.500000 -1.600000
v 1.600000 2.500000 -1.600000
v 1.200000 0.500000 -1.400000
v 1.200000 2.500000 -1.400000
v 1.200000 2.500000 -1.600000
v 1.200000 0.500000 -1.600000
v 1.400000 0.500000 -1.200000
v 1.400000 2.500000 -1.200000
v 1.600000 2.500000 -1.200000
v 1.600000 0.500000 -1.200000
v 1.500000 2.500000 -1.300000
v 1.400000 2.500000 -1.300000
v 1.300000 0.500000 -1.500000
v 1.300000 0.500000 -1.400000
v 1.500000 0.500000 -1.500000
v 1.400000 0.500000 -1.400000
v 1.400000 0.500000 -1.300000
v 1.500000 0.500000 -1.300000
v 1.300000 0.300000 -1.450000
v 1.300000 0.300000 -1.400000
v 1.450000 0.300000 -1.450000
v 1.400000 0.300000 -1.400000
v 1.400000 0.300000 -1.300000
v 1.450000 0.300000 -1.300000
v 1.450000 2.700000 -1.300000
v 1.400000 2.700000 -1.300000
v 1.400000 2.700000 -1.400000
v 1.300000 2.700000 -1.450000
v 1.450000 2.700000 -1.450000
v 1.300000 2.700000 -1.400000
vt 0.125000 0.875000
vt 0.125000 0.750000
vt 0.203125 0.812500
vt 0.875000 0.500000
vt 0.875000 1.000000
vt 0.625000 1.000000
vt 0.375000 0.875000
vt 0.375000 1.000000
vt 0.187500 0.812500
vt 0.187500 0.937500
vt 0.281250 0.906250
vt 0.281250 0.750000
vt 0.375000 0.750000
vt 0.000000 1.000000
vt 0.000000 0.000000
vt 0.125000 -0.000000
vt 0.250000 1.000000
vt 0.250000 0.921875
vt 0.312500 0.921875
vt 0.312500 0.812500
vt 0.125000 1.000000
vt 0.312500 0.937500
vt 0.250000 0.750000
vt 0.250000 0.812500
vt 0.375000 0.500000
vt 0.625000 0.500000
vt 0.171875 0.625000
vt 0.171875 0.000000
vt 0.265625 0.625000
vt 0.218750 0.000000
vt 0.265625 0.000000
vt 0.281250 0.843750
vt 0.203125 0.875000
vt 0.125000 0.906250
vt 0.312500 0.875000
vt 0.218750 0.625000
vt 0.125000 0.625000
vt 0.312500 0.000000
vt 0.312500 0.625000
vt 0.281250 1.000000
vt 0.125000 0.843750
vn 0.000000 1.000000 0.000000
vn 0.000000 0.000000 -1.000000
vn 0.000000 0.000000 1.000000
vn 0.000000 -1.000000 0.000000
vn -1.000000 0.000000 0.000000
vn 0.970100 -0.242500 0.000000
vn 1.000000 0.000000 0.000000
vn 0.000000 -0.242500 -0.970100
vn 0.970100 0.242500 0.000000
vn 0.000000 0.242500 -0.970100
s off
f 14/1/1 15/2/1 17/3/1
f 12/4/2 11/5/2 8/6/2
f 4/1/3 33/7/3 36/8/3
f 16/2/4 24/9/4 21/10/4
f 28/11/4 26/12/4 25/13/4
f 11/14/5 12/15/5 9/16/5
f 10/17/1 5/18/1 3/19/1
f 11/8/1 3/19/1 6/20/1
f 24/8/6 30/21/6 27/2/6
f 14/21/3 13/16/3 16/15/3
f 8/13/1 6/20/1 17/3/1
f 7/21/4 21/10/4 19/22/4
f 13/23/4 23/24/4 24/9/4
f 15/8/7 16/25/7 7/26/7
f 9/7/4 12/8/4 19/22/4
f 5/27/3 9/16/3 20/28/3
f 18/29/5 22/30/5 23/31/5
f 22/17/5 28/23/5 29/13/5
f 23/21/3 29/2/3 30/13/3
f 20/21/3 26/2/3 28/23/3
f 19/8/8 21/13/8 27/2/8
f 20/13/5 19/8/5 25/21/5
f 35/13/1 34/8/1 33/32/1
f 5/13/5 36/8/5 34/21/5
f 17/8/9 6/13/9 35/2/9
f 3/8/10 34/21/10 35/2/10
f 18/2/5 32/13/5 33/7/5
f 18/2/3 17/13/3 31/8/3
f 18/33/1 14/1/1 17/3/1
f 7/26/2 12/4/2 8/6/2
f 5/21/3 4/1/3 36/8/3
f 7/21/4 16/2/4 21/10/4
f 30/21/4 29/34/4 28/11/4
f 28/11/4 25/13/4 27/8/4
f 27/8/4 30/21/4 28/11/4
f 10/21/5 11/14/5 9/16/5
f 11/8/1 10/17/1 3/19/1
f 8/13/1 11/8/1 6/20/1
f 21/13/6 24/8/6 27/2/6
f 15/14/3 14/21/3 16/15/3
f 15/2/1 8/13/1 17/3/1
f 12/8/4 7/21/4 19/22/4
f 16/2/4 13/23/4 24/9/4
f 8/6/7 15/8/7 7/26/7
f 20/35/4 9/7/4 19/22/4
f 22/30/3 4/36/3 5/27/3
f 5/27/3 20/28/3 22/30/3
f 5/27/3 10/37/3 9/16/3
f 13/38/5 14/39/5 18/29/5
f 18/29/5 23/31/5 13/38/5
f 18/29/5 4/36/5 22/30/5
f 23/8/5 22/17/5 29/13/5
f 24/8/3 23/21/3 30/13/3
f 22/17/3 20/21/3 28/23/3
f 25/21/8 19/8/8 27/2/8
f 26/2/5 20/13/5 25/21/5
f 33/32/1 31/2/1 35/13/1
f 34/8/1 36/40/1 33/32/1
f 33/32/1 32/41/1 31/2/1
f 3/2/5 5/13/5 34/21/5
f 31/21/9 17/8/9 35/2/9
f 6/13/10 3/8/10 35/2/10
f 4/1/5 18/2/5 33/7/5
f 32/21/3 18/2/3 31/8/3
l 1 2
l 4 2
l 1 22
o Pylon1
v 1.400000 0.500000 0.300000
v 1.400000 2.500000 0.300000
v 1.400000 0.500000 -0.300000
v 1.400000 2.500000 -0.300000
v 1.600000 0.500000 0.300000
v 1.600000 2.500000 0.300000
v 1.600000 0.500000 -0.300000
v 1.600000 2.500000 -0.300000
v 1.400000 2.500000 0.150000
v 1.400000 2.500000 -0.150000
v 1.500000 2.500000 -0.150000
v 1.500000 2.500000 0.150000
v 1.400000 2.700000 0.150000
v 1.400000 2.700000 -0.150000
v 1.450000 2.700000 -0.150000
v 1.450000 2.700000 0.150000
v 1.400000 0.500000 -0.150000
v 1.400000 0.500000 0.150000
v 1.500000 0.500000 -0.150000
v 1.500000 0.500000 0.150000
v 1.400000 0.300000 -0.150000
v 1.400000 0.300000 0.150000
v 1.450000 0.300000 -0.150000
v 1.450000 0.300000 0.150000
vt 0.265625 0.625000
vt 0.171875 0.625000
vt 0.265625 0.000000
vt 0.125000 -0.000000
vt 0.125000 1.000000
vt 0.000000 1.000000
vt 0.875000 0.500000
vt 0.875000 1.000000
vt 0.375000 1.000000
vt 0.125000 0.921875
vt 0.187500 0.921875
vt 0.187500 0.968750
vt 0.125000 0.828125
vt 0.125000 0.750000
vt 0.187500 0.796875
vt 0.312500 0.000000
vt 0.375000 -0.000000
vt 0.375000 0.625000
vt 0.375000 0.750000
vt 0.312500 0.796875
vt 0.375000 0.828125
vt 0.312500 0.828125
vt 0.312500 0.625000
vt 0.250000 0.750000
vt 0.375000 0.921875
vt 0.312500 0.968750
vt 0.125000 0.625000
vt 0.171875 0.000000
vt 0.000000 0.000000
vt 0.375000 0.500000
vt 0.187500 0.828125
vt 0.250000 0.625000
vt 0.312500 0.921875
vn -1.000000 0.000000 0.000000
vn 0.000000 0.000000 -1.000000
vn 1.000000 0.000000 0.000000
vn 0.000000 0.000000 1.000000
vn 0.000000 -1.000000 0.000000
vn 0.000000 1.000000 0.000000
vn 0.970100 0.242500 0.000000
vn 0.970100 -0.242500 0.000000
s off
f 45/42/11 46/43/11 54/44/11
f 44/45/12 43/46/12 39/47/12
f 42/48/13 41/49/13 43/50/13
f 38/45/14 37/46/14 41/47/14
f 37/51/15 54/52/15 56/53/15
f 38/54/16 42/55/16 48/56/16
f 45/57/14 48/58/14 52/59/14
f 42/55/16 44/60/16 47/61/16
f 40/62/16 46/63/16 47/61/16
f 51/45/16 50/46/16 49/47/16
f 47/60/17 51/50/17 52/46/17
f 46/58/12 50/59/12 51/64/12
f 45/59/11 49/60/11 50/65/11
f 54/58/14 58/59/14 60/64/14
f 43/50/15 41/46/15 56/53/15
f 39/66/15 43/50/15 55/67/15
f 57/45/15 59/46/15 60/47/15
f 56/60/18 60/50/18 59/46/18
f 53/57/12 55/58/12 59/59/12
f 53/59/11 57/60/11 58/65/11
f 40/68/11 39/45/11 53/69/11
f 54/44/11 37/57/11 38/64/11
f 46/43/11 53/69/11 54/44/11
f 53/69/11 46/43/11 40/68/11
f 54/44/11 38/64/11 45/42/11
f 40/70/12 44/45/12 39/47/12
f 44/71/13 42/48/13 43/50/13
f 42/70/14 38/45/14 41/47/14
f 41/46/15 37/51/15 56/53/15
f 45/72/16 38/54/16 48/56/16
f 49/64/14 45/57/14 52/59/14
f 48/56/16 42/55/16 47/61/16
f 44/60/16 40/62/16 47/61/16
f 52/70/16 51/45/16 49/47/16
f 48/55/17 47/60/17 52/46/17
f 47/57/12 46/58/12 51/64/12
f 46/73/11 45/59/11 50/65/11
f 56/57/14 54/58/14 60/64/14
f 55/67/15 43/50/15 56/53/15
f 53/74/15 39/66/15 55/67/15
f 58/70/15 57/45/15 60/47/15
f 55/55/18 56/60/18 59/46/18
f 57/64/12 53/57/12 59/59/12
f 54/73/11 53/59/11 58/65/11
o Generator
v -1.000000 -1.000000 1.000000
v -1.000000 -0.800000 1.000000
v -1.000000 -1.000000 -1.000000
v -1.000000 -0.800000 -1.000000
v 1.000000 -1.000000 1.000000
v 1.000000 -0.800000 1.000000
v 1.000000 -1.000000 -1.000000
v 1.000000 -0.800000 -1.000000
v -0.500000 -0.500000 0.500000
v -0.500000 -0.500000 -0.500000
v 0.500000 -0.500000 -0.500000
v 0.500000 -0.500000 0.500000
v -1.000000 0.000000 1.000000
v -1.000000 0.000000 -1.000000
v 1.000000 0.000000 -1.000000
v 1.000000 0.000000 1.000000
v -1.000000 3.000000 1.000000
v -1.000000 3.000000 -1.000000
v 1.000000 3.000000 -1.000000
v 1.000000 3.000000 1.000000
v -1.000000 3.200000 1.000000
v -1.000000 3.200000 -1.000000
v 1.000000 3.200000 -1.000000
v 1.000000 3.200000 1.000000
v -1.000000 0.000000 0.633333
v -1.000000 0.000000 -0.633333
v -1.000000 3.000000 0.633333
v -1.000000 3.000000 -0.633333
v 0.633333 0.000000 1.000000
v -0.633333 0.000000 1.000000
v 0.633333 3.000000 1.000000
v -0.633333 3.000000 1.000000
v 1.000000 0.000000 -0.633333
v 1.000000 0.000000 0.633333
v 1.000000 3.000000 -0.633333
v 1.000000 3.000000 0.633333
v -0.633333 -0.005748 -1.004978
v 0.633333 0.000000 -1.000000
v -0.633333 2.994252 -1.004978
v 0.633333 3.000000 -1.000000
v 0.533333 -0.800000 1.000000
v -0.533333 -0.800000 1.000000
v -0.533333 -1.000000 1.000000
v 0.533333 -1.000000 1.000000
v -0.533333 -0.800000 -1.000000
v 0.533333 -0.800000 -1.000000
v 0.533333 -1.000000 -1.000000
v -0.533333 -1.000000 -1.000000
v 0.800000 -0.900000 2.000000
v -0.800000 -0.900000 2.000000
v -0.800000 -1.000000 2.000000
v 0.800000 -1.000000 2.000000
v -0.800000 -0.900000 -2.000000
v 0.800000 -0.900000 -2.000000
v 0.800000 -1.000000 -2.000000
v -0.800000 -1.000000 -2.000000
v -0.500000 3.400000 0.500000
v -0.500000 3.400000 -0.500000
v 0.500000 3.400000 -0.500000
v 0.500000 3.400000 0.500000
vt 0.312500 0.000000
vt 0.375000 0.000000
vt 0.375000 0.625000
vt 0.375000 0.750000
vt 0.250000 0.750000
vt 0.312500 0.625000
vt 0.250000 0.625000
vt 0.468750 0.500000
vt 0.750000 1.000000
vt 0.468750 1.000000
vt 0.500000 0.625000
vt 0.750000 0.625000
vt 0.500000 0.875000
vt 0.750000 0.875000
vt 0.781250 1.000000
vt 0.875000 1.000000
vt 0.765625 1.000000
vt 0.375000 0.500000
vt -0.000000 0.984375
vt 0.000000 0.015625
vt 0.125000 0.015625
vt 0.875000 0.593750
vt 0.375000 0.921875
vt 0.375000 0.515625
vt 0.125000 0.984375
vt 0.875000 0.500000
vt 0.312500 0.515625
vt 0.312500 0.125000
vt 0.375000 0.109375
vt 0.875000 0.000000
vt 1.000000 0.000000
vt 1.000000 1.000000
vt 0.875000 0.093750
vt 0.875000 0.406250
vt 0.781250 0.500000
vt 0.375000 0.093750
vt 0.468750 0.000000
vt 0.781250 0.000000
vt 0.375000 0.078125
vt 0.453125 0.000000
vt 0.453125 0.500000
vt 0.875000 0.421875
vt 0.796875 0.500000
vt 0.796875 0.000000
vt 0.125000 1.000000
vt 0.125000 0.750000
vt 0.375000 1.000000
vt 0.750000 0.500000
vt 0.765625 0.500000
vt 0.875000 0.921875
vt 0.375000 0.593750
vt 0.375000 0.406250
vt 0.375000 0.421875
vt 0.875000 0.078125
vn -1.000000 0.000000 0.000000
vn 0.000000 0.000000 -1.000000
vn 1.000000 0.000000 0.000000
vn 0.000000 0.000000 1.000000
vn 0.000000 -1.000000 0.000000
vn 0.000000 0.857500 0.514500
vn 0.000000 -0.707100 0.707100
vn 0.514500 0.857500 0.000000
vn 0.000000 0.857500 -0.514500
vn -0.514500 0.857500 0.000000
vn 0.707100 -0.707100 0.000000
vn 0.000000 -0.714700 -0.699500
vn -0.707100 -0.707100 0.000000
vn -0.013600 0.000000 -0.999900
vn 0.000000 0.928500 0.371400
vn 0.003800 0.030900 -0.999500
vn -0.707100 0.000000 0.707100
vn 0.711900 0.000000 0.702300
vn 0.707100 0.000000 -0.707100
vn 0.000000 1.000000 0.000000
vn -0.004500 1.000000 -0.002900
vn -0.012800 -0.999900 0.002900
vn 0.004500 -1.000000 0.002900
vn -0.707100 0.000000 -0.707100
vn -0.966200 0.000000 -0.257700
vn 0.966200 0.000000 0.257700
vn 0.966200 0.000000 -0.257700
vn 0.000000 0.995000 0.099500
vn -0.966200 0.000000 0.257700
vn 0.000000 0.995000 -0.099500
vn 0.371400 0.928500 0.000000
vn 0.000000 0.928500 -0.371400
vn -0.371400 0.928500 0.000000
vn 0.000000 -0.707100 -0.707100
vn -0.020700 -0.717200 -0.696500
vn 0.006000 -0.707900 -0.706300
vn 0.012800 0.999900 -0.002900
s off
f 64/75/19 63/76/19 61/77/19
f 68/77/20 67/78/20 107/79/20
f 66/77/21 65/80/21 67/75/21
f 62/78/22 61/79/22 103/81/22
f 104/82/23 108/83/23 107/84/23
f 69/85/24 102/82/24 72/86/24
f 69/87/25 72/88/25 89/89/25
f 68/90/26 71/88/26 72/86/26
f 71/88/27 106/91/27 70/87/27
f 62/92/28 69/85/28 70/87/28
f 76/93/22 80/94/22 91/95/22
f 72/88/29 71/86/29 93/96/29
f 71/86/30 70/85/30 97/82/30
f 70/85/31 69/87/31 85/97/31
f 81/75/22 91/98/22 84/80/22
f 75/95/21 79/99/21 95/93/21
f 74/95/32 78/99/32 99/93/32
f 73/95/19 77/99/19 87/93/19
f 84/100/33 120/86/33 117/85/33
f 96/101/21 95/102/21 83/76/21
f 100/103/34 99/98/34 82/80/34
f 88/103/19 87/98/19 81/80/19
f 86/94/19 88/93/19 78/99/19
f 100/90/35 98/104/35 93/105/35
f 90/94/22 92/93/22 77/99/22
f 94/95/21 96/99/21 80/93/21
f 86/104/36 97/105/36 99/106/36
f 98/94/20 100/93/20 79/99/20
f 92/90/37 90/104/37 85/105/37
f 86/107/38 85/108/38 90/109/38
f 93/110/38 98/111/38 89/82/38
f 98/111/39 97/112/39 90/109/39
f 88/113/40 99/114/40 92/115/40
f 96/116/23 91/117/23 100/118/23
f 92/115/41 99/114/41 100/118/41
f 96/105/42 94/106/42 89/90/42
f 101/81/22 104/77/22 65/78/22
f 103/76/43 111/77/43 110/80/43
f 105/81/20 108/77/20 63/78/20
f 107/80/44 115/75/44 114/76/44
f 110/77/22 111/80/22 112/75/22
f 104/77/45 101/80/45 109/75/45
f 104/119/23 112/120/23 111/78/23
f 102/119/46 110/120/46 109/78/46
f 114/75/20 115/76/20 116/77/20
f 108/77/47 105/80/47 113/75/47
f 108/78/23 116/121/23 115/119/23
f 106/78/48 114/121/48 113/119/48
f 119/88/38 118/87/38 117/85/38
f 83/90/49 119/88/49 120/86/49
f 82/121/50 118/87/50 119/88/50
f 81/92/51 117/85/51 118/87/51
f 62/80/19 64/75/19 61/77/19
f 106/81/20 68/77/20 107/79/20
f 68/76/21 66/77/21 67/75/21
f 102/77/22 62/78/22 103/81/22
f 108/83/23 103/122/23 61/100/23
f 67/121/23 65/92/23 104/82/23
f 104/82/23 107/84/23 67/121/23
f 61/100/23 63/90/23 108/83/23
f 108/83/23 104/82/23 103/122/23
f 102/82/24 69/85/24 62/92/24
f 101/123/24 66/100/24 72/86/24
f 72/86/24 102/82/24 101/123/24
f 90/84/25 73/121/25 69/87/25
f 69/87/25 89/89/25 90/84/25
f 89/89/25 72/88/25 76/90/25
f 66/100/26 68/90/26 72/86/26
f 106/91/27 71/88/27 68/90/27
f 105/84/27 64/121/27 70/87/27
f 70/87/27 106/91/27 105/84/27
f 64/121/28 62/92/28 70/87/28
f 89/99/22 76/93/22 91/95/22
f 94/124/29 76/90/29 72/88/29
f 71/86/29 75/100/29 93/96/29
f 93/96/29 94/124/29 72/88/29
f 98/109/52 75/100/52 71/86/52
f 70/85/53 74/92/53 97/82/53
f 97/82/54 98/109/54 71/86/54
f 86/125/31 74/92/31 70/85/31
f 69/87/31 73/121/31 85/97/31
f 85/97/31 86/125/31 70/85/31
f 92/103/22 81/75/22 77/76/22
f 91/98/22 80/77/22 84/80/22
f 81/75/22 92/103/22 91/98/22
f 93/94/21 75/95/21 95/93/21
f 97/94/32 74/95/32 99/93/32
f 85/94/19 73/95/19 87/93/19
f 81/92/33 84/100/33 117/85/33
f 96/101/21 84/77/21 80/80/21
f 95/102/21 79/75/21 83/76/21
f 83/76/21 84/77/21 96/101/21
f 100/103/20 83/75/20 79/76/20
f 99/98/32 78/77/32 82/80/32
f 82/80/20 83/75/20 100/103/20
f 88/103/19 82/75/19 78/76/19
f 87/98/19 77/77/19 81/80/19
f 81/80/19 82/75/19 88/103/19
f 74/95/19 86/94/19 78/99/19
f 95/106/35 100/90/35 93/105/35
f 73/95/22 90/94/22 77/99/22
f 76/94/21 94/95/21 80/93/21
f 88/90/36 86/104/36 99/106/36
f 75/95/20 98/94/20 79/99/20
f 87/106/37 92/90/37 85/105/37
f 97/112/55 86/107/55 90/109/55
f 94/126/38 93/110/38 89/82/38
f 89/82/38 98/111/38 90/109/38
f 87/127/23 88/113/23 92/115/23
f 95/128/23 96/116/23 100/118/23
f 91/117/23 92/115/23 100/118/23
f 91/104/42 96/105/42 89/90/42
f 66/79/22 101/81/22 65/78/22
f 102/75/43 103/76/43 110/80/43
f 64/79/20 105/81/20 63/78/20
f 106/77/44 107/80/44 114/76/44
f 109/76/22 110/77/22 112/75/22
f 112/76/45 104/77/45 109/75/45
f 103/121/23 104/119/23 111/78/23
f 101/121/46 102/119/46 109/78/46
f 113/80/20 114/75/20 116/77/20
f 116/76/47 108/77/47 113/75/47
f 107/120/23 108/78/23 115/119/23
f 105/120/48 106/78/48 113/119/48
f 120/86/38 119/88/38 117/85/38
f 84/100/49 83/90/49 120/86/49
f 83/90/50 82/121/50 119/88/50
f 82/121/51 81/92/51 118/87/51
