# Blender v2.74 (sub 0) OBJ File: 'guide.blend'
# www.blender.org
o Book
v -0.467500 0.911645 0.082500
v -0.467500 0.911645 -0.082500
v 0.467500 0.631145 0.082500
v 0.467500 0.631145 -0.082500
v -0.438765 1.007428 0.000000
v 0.496235 0.726928 0.000000
v 0.536739 0.761942 0.739662
v -0.398261 1.042442 0.739662
v -0.369526 1.138225 0.657162
v 0.565474 0.857725 0.657162
v -0.398261 1.042442 -0.739662
v 0.536739 0.761942 -0.739662
v -0.369526 1.138225 -0.657162
v 0.565474 0.857725 -0.657162
v -0.477059 0.914582 -0.082500
v -0.477059 0.914582 0.082500
v -0.407820 1.045379 0.739662
v -0.407820 1.045379 -0.739662
v -0.482806 0.895426 0.082500
v -0.482806 0.895426 -0.082500
v 0.477059 0.628208 -0.082500
v 0.477059 0.628208 0.082500
v 0.546298 0.759005 0.739662
v 0.546298 0.759005 -0.739662
v 0.471312 0.609051 0.082500
v 0.471312 0.609051 -0.082500
v -0.397344 1.045451 -0.753900
v 0.537656 0.764951 -0.753900
v -0.406903 1.048388 -0.753900
v -0.412358 1.030204 -0.763337
v 0.541760 0.743830 -0.763337
v 0.547215 0.762014 -0.753900
v 0.537656 0.764951 0.753900
v -0.397344 1.045451 0.753900
v -0.412358 1.030204 0.763337
v -0.406903 1.048388 0.753900
v 0.547215 0.762014 0.753900
v 0.541760 0.743830 0.763337
vt 0.562500 0.000000
vt 0.562500 0.500000
vt 0.125000 0.500000
vt 0.859375 0.500000
vt 0.984375 0.500000
vt 0.921875 0.625000
vt 0.437500 0.500000
vt 0.875000 0.500000
vt 0.875000 1.000000
vt 0.984375 1.000000
vt 0.859375 0.875000
vt 0.984375 0.875000
vt 0.921875 1.000000
vt 0.437500 1.000000
vt 0.000000 1.000000
vt 1.000000 0.500000
vt 1.000000 0.984375
vt 1.000000 1.000000
vt 0.125000 0.000000
vt 0.000000 0.500000
vt 0.984375 0.515625
vt 1.000000 0.000000
vt 0.984375 0.984375
vt 0.000000 0.000000
vn -0.280800 -0.935500 -0.214300
vn -0.957800 0.287300 0.000000
vn 0.280600 0.935300 0.215700
vn 0.948000 -0.316200 -0.036900
vn 0.957800 -0.287300 0.000000
vn 0.182900 0.609500 0.771400
vn 0.280600 0.935300 -0.215700
vn -0.948000 0.316200 0.036900
vn 0.182900 0.609500 -0.771400
vn 0.948000 -0.316200 0.036900
vn -0.948000 0.316200 -0.036900
vn 0.942800 -0.331700 0.031900
vn 0.286800 0.933400 -0.215700
vn -0.287500 -0.957800 0.000000
vn 0.942800 -0.331700 -0.031900
vn -0.957700 0.287800 -0.000900
vn 0.286800 0.933300 0.216000
vn 0.286800 0.933300 -0.216000
vn 0.293700 0.955900 0.000000
vn -0.280800 -0.935500 0.214300
vn 0.128300 0.427500 0.894900
vn -0.942800 0.331700 0.031900
vn 0.286800 0.933400 0.215700
vn 0.127500 0.425100 -0.896100
vn 0.956900 -0.287100 0.043700
vn 0.957700 -0.287800 0.000900
vn 0.956900 -0.287100 -0.043700
vn 0.957700 -0.287800 -0.000900
vn -0.956900 0.287100 -0.043700
vn -0.942800 0.331700 -0.031900
vn 0.127500 0.425100 0.896100
vn 0.130700 0.425500 0.895500
vn -0.956900 0.287100 0.043700
vn -0.957700 0.287800 0.000900
vn 0.128300 0.427500 -0.894900
vn 0.130700 0.425500 -0.895500
s off
f 26/1/1 20/2/1 30/3/1
f 2/4/2 1/5/2 5/6/2
f 6/7/3 14/8/3 13/9/3
f 3/8/4 6/5/4 10/10/4
f 3/11/5 4/12/5 6/13/5
f 7/8/6 10/5/6 9/10/6
f 6/7/7 5/14/7 9/15/7
f 1/9/8 8/8/8 9/5/8
f 11/10/9 13/9/9 14/8/9
f 4/5/10 12/10/10 14/9/10
f 2/10/11 5/9/11 13/8/11
f 26/10/12 31/5/12 24/16/12
f 7/17/13 33/18/13 37/10/13
f 15/5/2 20/16/2 19/18/2
f 20/19/14 26/3/14 25/20/14
f 25/5/15 23/18/15 38/10/15
f 18/21/16 29/5/16 30/16/16
f 2/10/17 11/5/17 18/16/17
f 1/5/18 16/16/18 17/18/18
f 2/5/19 15/16/19 16/18/19
f 22/18/5 25/10/5 26/5/5
f 35/22/20 19/1/20 25/2/20
f 12/16/17 4/18/17 21/10/17
f 7/18/18 23/10/18 22/5/18
f 3/18/19 22/10/19 21/5/19
f 12/5/3 28/16/3 27/18/3
f 34/18/21 35/10/21 38/5/21
f 17/17/13 36/18/13 34/10/13
f 7/16/7 8/18/7 34/10/7
f 19/16/22 35/18/22 17/23/22
f 18/23/23 11/17/23 27/18/23
f 12/23/23 24/17/23 32/18/23
f 31/16/24 27/10/24 28/21/24
f 31/19/1 26/1/1 30/3/1
f 5/14/3 6/7/3 13/9/3
f 7/9/4 3/8/4 10/10/4
f 8/9/6 7/8/6 9/10/6
f 10/20/7 6/7/7 9/15/7
f 5/10/8 1/9/8 9/5/8
f 12/5/9 11/10/9 14/8/9
f 6/8/10 4/5/10 14/9/10
f 11/5/11 2/10/11 13/8/11
f 24/16/25 21/18/25 26/10/25
f 31/5/26 32/16/26 24/16/26
f 23/23/13 7/17/13 37/10/13
f 16/10/2 15/5/2 19/18/2
f 19/24/14 20/19/14 25/20/14
f 23/18/27 25/5/27 22/16/27
f 23/18/28 37/18/28 38/10/28
f 20/18/29 15/10/29 18/21/29
f 18/21/30 30/16/30 20/18/30
f 15/18/17 2/10/17 18/16/17
f 8/10/18 1/5/18 17/18/18
f 1/10/19 2/5/19 16/18/19
f 21/16/5 22/18/5 26/5/5
f 38/16/20 35/22/20 25/2/20
f 24/5/17 12/16/17 21/10/17
f 3/16/18 7/18/18 22/5/18
f 4/16/19 3/18/19 21/5/19
f 11/10/3 12/5/3 27/18/3
f 38/5/31 33/16/31 34/18/31
f 33/16/32 38/5/32 37/16/32
f 34/18/32 36/18/32 35/10/32
f 8/23/13 17/17/13 34/10/13
f 33/5/7 7/16/7 34/10/7
f 17/23/33 16/5/33 19/16/33
f 35/18/34 36/10/34 17/23/34
f 29/10/23 18/23/23 27/18/23
f 28/10/23 12/23/23 32/18/23
f 27/10/35 31/16/35 30/18/35
f 31/16/36 28/21/36 32/5/36
f 30/18/36 29/10/36 27/10/36
l 2 4
l 3 1
o Page
v -0.438765 0.140250 0.000000
v 0.496235 -0.140250 0.000000
v -0.369526 0.271045 -0.657162
v 0.565474 -0.009455 -0.657162
vt 0.437500 0.500000
vt 0.875000 0.500000
vt 0.875000 1.000000
vt 0.437500 1.000000
vn 0.280600 0.935300 0.215700
s off
f 40/25/37 42/26/37 41/27/37
f 39/28/37 40/25/37 41/27/37
o Lectern
v -0.500000 -0.800000 0.500000
v -0.500000 0.800000 0.500000
v -0.500000 -0.800000 -0.500000
v -0.500000 0.800000 -0.500000
v 0.500000 -0.800000 0.500000
v 0.500000 0.500000 0.500000
v 0.500000 -0.800000 -0.500000
v 0.500000 0.500000 -0.500000
v -0.500000 -0.800000 0.600000
v 0.500000 -0.800000 0.600000
v -0.500000 -1.000000 0.600000
v 0.500000 -1.000000 0.600000
v 0.500000 -0.800000 -0.600000
v -0.500000 -0.800000 -0.600000
v 0.500000 -1.000000 -0.600000
v -0.500000 -1.000000 -0.600000
v -0.550000 0.915000 0.550000
v -0.550000 0.915000 -0.550000
v 0.550000 0.585000 0.550000
v 0.550000 0.585000 -0.550000
vt 0.000000 0.875000
vt 0.000000 0.000000
vt 0.500000 0.000000
vt 0.500000 0.875000
vt 0.500000 1.000000
vt 1.000000 0.500000
vt 1.000000 1.000000
vt 0.046875 1.000000
vt 0.468750 1.000000
vt 0.000000 1.000000
vt 0.000000 0.046875
vt 0.500000 0.046875
vt 0.000080 0.999920
vt 0.500000 0.500000
vn -1.000000 0.000000 0.000000
vn 0.000000 0.000000 -1.000000
vn 1.000000 0.000000 0.000000
vn 0.000000 0.000000 1.000000
vn -0.133000 -0.443200 0.886500
vn 0.000000 -1.000000 0.000000
vn 0.000000 1.000000 0.000000
vn 0.287300 0.957800 0.000000
vn 0.861900 -0.507000 0.000000
vn -0.133000 -0.443200 -0.886500
vn -0.917100 -0.398700 0.000000
s off
f 46/29/38 45/30/38 43/31/38
f 50/29/39 49/30/39 45/31/39
f 48/29/40 47/30/40 49/31/40
f 48/32/41 44/29/41 43/30/41
f 44/29/42 48/32/42 61/33/42
f 58/34/43 57/35/43 54/33/43
f 47/36/40 54/29/40 49/37/40
f 51/38/41 53/29/41 54/32/41
f 43/39/44 51/30/44 52/31/44
f 55/32/39 57/33/39 58/38/39
f 58/29/38 43/37/38 45/36/38
f 49/31/44 55/40/44 56/39/44
f 62/34/45 60/35/45 59/33/45
f 50/32/46 62/33/46 61/38/46
f 46/32/47 60/33/47 62/38/47
f 44/32/48 59/33/48 60/38/48
f 44/32/38 46/29/38 43/31/38
f 46/32/39 50/29/39 45/31/39
f 50/32/40 48/29/40 49/31/40
f 47/31/41 48/32/41 43/30/41
f 59/41/42 44/29/42 61/33/42
f 53/42/43 58/34/43 54/33/43
f 57/32/40 55/33/40 49/37/40
f 54/29/40 47/36/40 52/38/40
f 49/37/40 54/29/40 57/32/40
f 52/33/41 51/38/41 54/32/41
f 47/40/44 43/39/44 52/31/44
f 56/29/39 55/32/39 58/38/39
f 43/37/38 58/29/38 53/32/38
f 58/29/38 45/36/38 56/38/38
f 53/32/38 51/33/38 43/37/38
f 45/30/44 49/31/44 56/39/44
f 61/42/45 62/34/45 59/33/45
f 48/29/46 50/32/46 61/38/46
f 50/29/47 46/32/47 62/38/47
f 46/29/48 44/32/48 60/38/48
