# Blender v2.74 (sub 0) OBJ File: 'staffChanger.blend'
# www.blender.org
o Cube_Cube.001
v -1.000000 -1.000000 1.000000
v -1.000000 -0.250000 1.000000
v -1.000000 -1.000000 -1.000000
v -1.000000 -0.250000 -1.000000
v 1.000000 -1.000000 1.000000
v 1.000000 -0.250000 1.000000
v 1.000000 -1.000000 -1.000000
v 1.000000 -0.250000 -1.000000
v -0.500000 0.000000 0.500000
v -0.500000 0.000000 -0.500000
v 0.500000 0.000000 -0.500000
v 0.500000 0.000000 0.500000
v -0.500000 0.250000 0.500000
v -0.500000 0.250000 -0.500000
v 0.500000 0.250000 -0.500000
v 0.500000 0.250000 0.500000
v -0.250000 0.250000 0.250000
v -0.250000 0.250000 -0.250000
v 0.250000 0.250000 -0.250000
v 0.250000 0.250000 0.250000
v -0.250000 0.000000 0.250000
v -0.250000 0.000000 -0.250000
v 0.250000 0.000000 -0.250000
v 0.250000 0.000000 0.250000
vt 0.500000 0.750000
vt 0.500000 1.000000
vt -0.000000 1.000000
vt 1.000000 0.500000
vt 1.000000 1.000000
vt 1.000000 0.000000
vt 0.875000 0.125000
vt 0.625000 0.125000
vt 0.500000 0.625000
vt 0.000000 0.750000
vt 0.875000 0.375000
vt 0.500000 0.500000
vt 0.625000 0.375000
vt 0.500000 0.000000
vt 0.375000 0.625000
vt 0.000000 0.625000
vt 0.375000 0.500000
vn -1.000000 0.000000 0.000000
vn 0.000000 0.000000 -1.000000
vn 1.000000 0.000000 0.000000
vn 0.000000 0.000000 1.000000
vn 0.000000 -1.000000 0.000000
vn 0.000000 0.894400 0.447200
vn 0.447200 0.894400 0.000000
vn 0.000000 0.894400 -0.447200
vn -0.447200 0.894400 0.000000
vn 0.000000 1.000000 0.000000
s off
f 4/1/1 3/2/1 1/3/1
f 8/1/2 7/2/2 3/3/2
f 6/1/3 5/2/3 7/3/3
f 2/1/4 1/2/4 5/3/4
f 3/4/5 7/5/5 5/2/5
f 6/6/6 12/7/6 9/8/6
f 12/9/4 16/1/4 13/10/4
f 8/4/7 11/11/7 12/7/7
f 4/12/8 10/13/8 11/11/8
f 2/14/9 9/8/9 10/13/9
f 16/6/10 20/7/10 17/8/10
f 11/9/3 15/1/3 16/10/3
f 10/9/2 14/1/2 15/10/2
f 9/9/1 13/1/1 14/10/1
f 20/1/2 24/2/2 21/3/2
f 15/4/10 19/11/10 20/7/10
f 14/12/10 18/13/10 19/11/10
f 13/14/10 17/8/10 18/13/10
f 23/12/10 22/9/10 21/15/10
f 19/1/1 23/2/1 24/3/1
f 18/1/4 22/2/4 23/3/4
f 17/1/3 21/2/3 22/3/3
f 2/10/1 4/1/1 1/3/1
f 4/10/2 8/1/2 3/3/2
f 8/10/3 6/1/3 7/3/3
f 6/10/4 2/1/4 5/3/4
f 1/12/5 3/4/5 5/2/5
f 2/14/6 6/6/6 9/8/6
f 9/16/4 12/9/4 13/10/4
f 6/6/7 8/4/7 12/7/7
f 8/4/8 4/12/8 11/11/8
f 4/12/9 2/14/9 10/13/9
f 13/14/10 16/6/10 17/8/10
f 12/16/3 11/9/3 16/10/3
f 11/16/2 10/9/2 15/10/2
f 10/16/1 9/9/1 14/10/1
f 17/10/2 20/1/2 21/3/2
f 16/6/10 15/4/10 20/7/10
f 15/4/10 14/12/10 19/11/10
f 14/12/10 13/14/10 18/13/10
f 24/17/10 23/12/10 21/15/10
f 20/10/1 19/1/1 24/3/1
f 19/10/4 18/1/4 23/3/4
f 18/10/3 17/1/3 22/3/3
