# Blender v2.74 (sub 0) OBJ File: 'defaultStaff.blend'
# www.blender.org
o Cube.001_Cube
v -0.070293 -1.035146 0.070293
v -0.070293 -0.964854 0.070293
v -0.070293 -1.035146 -0.070293
v -0.070293 -0.964854 -0.070293
v 0.070293 -1.035146 0.070293
v 0.070293 -0.964854 0.070293
v 0.070293 -1.035146 -0.070293
v 0.070293 -0.964854 -0.070293
vt 0.750000 0.000000
vt 1.000000 0.000000
vt 1.000000 0.500000
vt 0.750000 0.500000
vt 1.000000 1.000000
vt 0.500000 0.000000
vt 0.750000 1.000000
vt 0.500000 1.000000
vt 0.500000 0.500000
vt 0.000000 0.500000
vt 0.000000 0.000000
vt 0.000000 1.000000
vn -1.000000 0.000000 0.000000
vn 0.000000 0.000000 -1.000000
vn 1.000000 0.000000 0.000000
vn 0.000000 0.000000 1.000000
vn 0.000000 -1.000000 0.000000
vn 0.000000 1.000000 0.000000
s off
f 4/1/1 3/2/1 1/3/1
f 8/4/2 7/3/2 3/5/2
f 6/6/3 5/1/3 7/4/3
f 2/7/4 1/8/4 5/9/4
f 3/10/5 7/9/5 5/8/5
f 8/9/6 4/10/6 2/11/6
f 2/4/1 4/1/1 1/3/1
f 4/7/2 8/4/2 3/5/2
f 8/9/3 6/6/3 7/4/3
f 6/4/4 2/7/4 5/9/4
f 1/12/5 3/10/5 5/8/5
f 6/6/6 8/9/6 2/11/6
