# Blender v2.74 (sub 0) OBJ File: 'defaultStaff.blend'
# www.blender.org
o Cube_Cube.001
v -0.050000 -1.000000 0.050000
v -0.050000 1.000000 0.050000
v -0.050000 -1.000000 -0.050000
v -0.050000 1.000000 -0.050000
v 0.050000 -1.000000 0.050000
v 0.050000 1.000000 0.050000
v 0.050000 -1.000000 -0.050000
v 0.050000 1.000000 -0.050000
vt 0.500000 -0.000000
vt 0.500000 1.000000
vt 0.250000 1.000000
vt -0.000000 0.000000
vt -0.000000 1.000000
vt 1.000000 0.000000
vt 1.000000 1.000000
vt 0.750000 1.000000
vt 0.250000 -0.000000
vt 0.750000 0.000000
vn -1.000000 0.000000 0.000000
vn 0.000000 0.000000 -1.000000
vn 1.000000 0.000000 0.000000
vn 0.000000 0.000000 1.000000
s off
f 4/1/1 3/2/1 1/3/1
f 8/4/2 7/5/2 3/3/2
f 6/6/3 5/7/3 7/8/3
f 2/1/4 1/2/4 5/8/4
f 2/9/1 4/1/1 1/3/1
f 4/9/2 8/4/2 3/3/2
f 8/10/3 6/6/3 7/8/3
f 6/10/4 2/1/4 5/8/4
